<svg width="24" height="19" viewBox="0 0 24 19" fill="none" xmlns="http://www.w3.org/2000/svg">
<path d="M9.3091 0C8.95203 0 8.66258 0.289457 8.66258 0.64652C8.66258 1.09222 8.22123 1.4052 7.78886 1.29699C6.98805 1.09656 6.15737 0.994147 5.32669 0.994147C4.44987 0.994147 3.57306 1.10698 2.72647 1.33329C0.542233 1.91716 0.494942 4.63142 2.18898 6.12876L2.96421 6.81397C3.15231 6.98023 3.3947 7.072 3.64575 7.072H3.81048C4.28786 7.072 4.67485 7.45899 4.67485 7.93637C4.67485 8.18411 4.77902 8.4228 4.97535 8.57389C5.69345 9.12651 6.5289 9.50069 7.40504 9.69913C8.08981 9.85423 8.6498 10.4174 8.6498 11.1195C8.6498 11.8415 8.0645 12.4268 7.34251 12.4268H6.73901C5.68371 12.4268 4.82822 13.2823 4.82822 14.3376V15.816C4.82822 17.0587 5.97853 18.0754 7.38446 18.0754H20.1656C22.2873 18.0754 24 16.5616 24 14.6863V7.66872C24 3.43341 20.5666 0 16.3313 0H9.3091ZM-nan -nanL7.24387 7.24146V6.02702C7.24387 5.3563 6.70014 4.81258 6.02942 4.81258H4.6496C4.44351 4.81258 4.24452 4.73724 4.09011 4.60075C3.60434 4.17139 3.77191 3.39279 4.4151 3.31139C4.71644 3.27326 5.02105 3.25386 5.32669 3.25357C7.03937 3.25357 8.63701 3.84102 9.85123 4.90295L11.3978 6.26991C11.5335 6.38993 11.5335 6.60177 11.3978 6.72179C11.0766 7.00836 10.6944 7.2358 10.2732 7.39093C9.85194 7.54606 9.40009 7.62581 8.94376 7.62556C8.34305 7.62556 7.75511 7.48999 7.24387 7.24146L-nan -nanZM21.4438 14.6863C21.4438 15.3076 20.8686 15.816 20.1656 15.816C19.4627 15.816 18.8875 15.3076 18.8875 14.6863C18.8875 13.4384 17.8759 12.4268 16.6281 12.4268H12.9349C11.9871 12.4268 11.2188 11.6585 11.2188 10.7108C11.2188 9.98528 11.689 9.35925 12.3136 8.99012C12.6309 8.80259 12.932 8.58538 13.2127 8.33728C13.3587 8.20818 13.578 8.20799 13.7243 8.33683L16.7147 10.9706C16.9536 11.181 17.261 11.2971 17.5793 11.2971H17.7907C18.3964 11.2971 18.8875 10.8061 18.8875 10.2003C18.8875 9.88495 18.7518 9.58488 18.515 9.37664L11.3826 3.10389C11.2785 3.01233 11.2188 2.88038 11.2188 2.74173C11.2188 2.47536 11.4347 2.25943 11.7011 2.25943H16.3313C19.1548 2.25943 21.4438 4.54836 21.4438 7.3719V14.6863Z" fill="#FF7200"/>
</svg>
