<svg width="20" height="19" viewBox="0 0 20 19" fill="none" xmlns="http://www.w3.org/2000/svg">
<path d="M9.70115 0.1169C9.81918 0.041823 9.96244 0.000856709 10.1099 1.32891e-05C10.2574 -0.00083013 10.4012 0.0384937 10.5205 0.112214C12.3136 1.22129 14.5159 1.88127 16.3016 2.2632C17.189 2.453 17.9614 2.57171 18.5103 2.64279C18.7783 2.67732 19.0472 2.70675 19.3168 2.73105L19.3582 2.73495H19.3692C19.5414 2.74748 19.7018 2.81447 19.8186 2.92267C19.9354 3.03086 20.0002 3.17237 20 3.31917V8.5912C20 12.3629 17.0455 16.882 10.3264 18.7166C10.1889 18.7543 10.041 18.7543 9.90345 18.7166C3.19816 16.8851 0 12.3738 0 8.39594V3.31917C0 3.01457 0.275862 2.75995 0.634483 2.73495H0.646437L0.690575 2.73105C0.730115 2.72792 0.789885 2.72324 0.868965 2.71543C1.02529 2.70059 1.25701 2.67716 1.54667 2.64201C2.12598 2.57093 2.93793 2.45143 3.86023 2.26164C5.72046 1.87893 7.97149 1.21895 9.70115 0.1169ZM-nan -nanL15.4225 6.4738C15.554 6.36567 15.6295 6.21762 15.6324 6.06221C15.6353 5.9068 15.5655 5.75677 15.4382 5.64511C15.3109 5.53346 15.1365 5.46934 14.9536 5.46685C14.7706 5.46436 14.594 5.52371 14.4625 5.63184L9.80234 9.46226C8.63139 10.4247 6.95079 10.4506 5.7508 9.52455V9.52455C5.61453 9.42532 5.43808 9.37513 5.25893 9.38464C5.07978 9.39414 4.91206 9.4626 4.79139 9.57547C4.67072 9.68834 4.60661 9.83672 4.61268 9.98909C4.61875 10.1415 4.69453 10.2858 4.82391 10.3915L7.35264 12.3441C7.48233 12.4442 7.65204 12.4987 7.82728 12.4964C8.00252 12.494 8.17014 12.4351 8.29609 12.3316L15.4225 6.4738L-nan -nanL-nan -nanZ" fill="#FF7200"/>
</svg>
