<svg width="66" height="69" viewBox="0 0 66 69" fill="none" xmlns="http://www.w3.org/2000/svg">
<path d="M33 1.06451C14.7742 1.06451 0 15.8387 0 34.0645C0 52.2904 14.7742 67.0645 33 67.0645C51.2258 67.0645 66 52.2904 66 34.0645C66 15.8387 51.2258 1.06451 33 1.06451ZM31.4911 33.0306C31.1065 33.672 30.4132 34.0645 29.6654 34.0645H29.6242C29.06 34.0645 28.5184 34.2894 28.1192 34.6886L27.3661 35.4417C26.9509 35.8569 26.9509 36.5315 27.3661 36.9467L28.1192 37.6998C28.5184 38.099 28.7433 38.6406 28.7433 39.2048V40.4516C28.7433 41.6279 27.7905 42.5806 26.6142 42.5806H25.8012C24.9948 42.5806 24.2577 42.1256 23.8971 41.403L20.8871 35.3845C20.5625 34.7352 19.6962 34.5941 19.1826 35.1077L16.5918 37.6972C16.1926 38.0964 15.651 38.3212 15.0869 38.3212H6.76101C6.53613 36.9321 6.3871 35.5176 6.3871 34.0645C6.3871 19.3902 18.3256 7.45161 33 7.45161C35.8622 7.45161 38.6153 7.91867 41.2008 8.7583L34.5263 13.8853C33.8463 14.339 33.9102 15.357 34.6407 15.7229L36.0818 16.4428C36.803 16.8034 37.2581 17.5406 37.2581 18.3469V28.7419C37.2581 29.3301 36.7817 29.8065 36.1936 29.8065H35.7864C35.3832 29.8065 35.0146 29.5789 34.835 29.2183C34.6274 28.8031 34.0419 28.7805 33.8024 29.1784L31.4911 33.0306V33.0306ZM54.2903 47.6943C54.2903 48.2585 54.0654 48.8001 53.6663 49.1993L52.3928 50.4727C51.9936 50.8719 51.4521 51.0968 50.8879 51.0968H48.8706C48.3064 51.0968 47.7648 50.8719 47.3656 50.4727L45.6345 48.7415C45.1995 48.3066 44.6594 47.9917 44.0666 47.8276C43.4739 47.6634 42.8487 47.6556 42.252 47.8048L39.4217 48.5127C39.2527 48.5552 39.0797 48.5765 38.9054 48.5765H37.5295C36.9653 48.5765 36.4238 48.3517 36.0246 47.9525L34.4398 46.3677C34.2403 46.1678 34.1283 45.8969 34.1284 45.6145V44.2573C34.1284 43.8221 34.3932 43.4309 34.7977 43.2686L40.0325 41.1742C40.2959 41.069 40.5461 40.932 40.7763 40.7683L43.9313 38.5208C44.1115 38.3925 44.3274 38.3236 44.5487 38.3239H46.1574C46.5872 38.3239 46.9758 38.5821 47.1408 38.9799L47.8527 40.6898C47.8931 40.7867 47.9613 40.8695 48.0486 40.9277C48.136 40.986 48.2387 41.0171 48.3437 41.0171H48.8493C49.0862 41.0171 49.2951 40.8601 49.3603 40.6339L49.9192 38.7085C49.9857 38.4809 50.1933 38.3252 50.4301 38.3252H51.2365C51.5306 38.3252 51.7688 38.5634 51.7688 38.8575V40.578C51.7688 40.8601 51.8805 41.1316 52.0801 41.3312L53.6649 42.916C54.0641 43.3152 54.289 43.8567 54.289 44.4209V47.6943H54.2903Z" fill="#FF7200"/>
</svg>
